<mxfile host="app.diagrams.net" modified="2023-07-16T14:45:40.408Z" agent="Mozilla/5.0 (Windows NT 10.0; Win64; x64) AppleWebKit/537.36 (KHTML, like Gecko) Chrome/114.0.0.0 Safari/537.36" etag="thuhEVfmKf12JTSKRwH4" version="21.6.2" type="github">
  <diagram name="第 1 页" id="_uEKHgL8cd-D3w2JuCzl">
    <mxGraphModel dx="2263" dy="748" grid="1" gridSize="10" guides="1" tooltips="1" connect="1" arrows="1" fold="1" page="1" pageScale="1" pageWidth="827" pageHeight="1169" math="0" shadow="0">
      <root>
        <mxCell id="0" />
        <mxCell id="1" parent="0" />
        <mxCell id="iygmlJufoD4NKqdOlYH3-1" value="Worker1&lt;br style=&quot;font-size: 14px;&quot;&gt;&lt;span style=&quot;font-weight: normal;&quot;&gt;Message Queue&lt;/span&gt;" style="rounded=0;whiteSpace=wrap;html=1;fontSize=14;fontStyle=1" vertex="1" parent="1">
          <mxGeometry x="-140" y="270" width="200" height="280" as="geometry" />
        </mxCell>
        <mxCell id="iygmlJufoD4NKqdOlYH3-3" value="Worker2&lt;br&gt;&lt;span style=&quot;font-weight: normal;&quot;&gt;Message Queue&lt;/span&gt;" style="rounded=0;whiteSpace=wrap;html=1;fontSize=14;fontStyle=1" vertex="1" parent="1">
          <mxGeometry x="800" y="270" width="160" height="280" as="geometry" />
        </mxCell>
        <mxCell id="iygmlJufoD4NKqdOlYH3-8" value="Message Channel/Main Worker" style="rounded=0;whiteSpace=wrap;html=1;fontSize=14;fontStyle=1" vertex="1" parent="1">
          <mxGeometry x="270" y="270" width="340" height="280" as="geometry" />
        </mxCell>
        <mxCell id="iygmlJufoD4NKqdOlYH3-21" value="" style="endArrow=classic;html=1;rounded=0;exitX=1.003;exitY=0.16;exitDx=0;exitDy=0;exitPerimeter=0;entryX=-0.001;entryY=0.162;entryDx=0;entryDy=0;entryPerimeter=0;" edge="1" parent="1" source="iygmlJufoD4NKqdOlYH3-1" target="iygmlJufoD4NKqdOlYH3-8">
          <mxGeometry width="50" height="50" relative="1" as="geometry">
            <mxPoint x="370" y="350" as="sourcePoint" />
            <mxPoint x="420" y="300" as="targetPoint" />
          </mxGeometry>
        </mxCell>
        <mxCell id="iygmlJufoD4NKqdOlYH3-22" value="" style="endArrow=classic;html=1;rounded=0;exitX=1.003;exitY=0.16;exitDx=0;exitDy=0;exitPerimeter=0;entryX=-0.012;entryY=0.143;entryDx=0;entryDy=0;entryPerimeter=0;" edge="1" parent="1" target="iygmlJufoD4NKqdOlYH3-3">
          <mxGeometry width="50" height="50" relative="1" as="geometry">
            <mxPoint x="610" y="310" as="sourcePoint" />
            <mxPoint x="720" y="310" as="targetPoint" />
          </mxGeometry>
        </mxCell>
        <mxCell id="iygmlJufoD4NKqdOlYH3-23" value="" style="endArrow=classic;html=1;rounded=0;exitX=0;exitY=0.5;exitDx=0;exitDy=0;entryX=1;entryY=0.5;entryDx=0;entryDy=0;" edge="1" parent="1" source="iygmlJufoD4NKqdOlYH3-3" target="iygmlJufoD4NKqdOlYH3-8">
          <mxGeometry width="50" height="50" relative="1" as="geometry">
            <mxPoint x="370" y="350" as="sourcePoint" />
            <mxPoint x="420" y="300" as="targetPoint" />
          </mxGeometry>
        </mxCell>
        <mxCell id="iygmlJufoD4NKqdOlYH3-24" value="" style="endArrow=classic;html=1;rounded=0;exitX=0;exitY=0.5;exitDx=0;exitDy=0;entryX=1;entryY=0.5;entryDx=0;entryDy=0;" edge="1" parent="1" target="iygmlJufoD4NKqdOlYH3-1">
          <mxGeometry width="50" height="50" relative="1" as="geometry">
            <mxPoint x="270" y="409.5" as="sourcePoint" />
            <mxPoint x="160" y="409.5" as="targetPoint" />
          </mxGeometry>
        </mxCell>
        <mxCell id="iygmlJufoD4NKqdOlYH3-25" value="" style="endArrow=classic;html=1;rounded=0;exitX=1;exitY=0.824;exitDx=0;exitDy=0;exitPerimeter=0;entryX=-0.001;entryY=0.162;entryDx=0;entryDy=0;entryPerimeter=0;" edge="1" parent="1" source="iygmlJufoD4NKqdOlYH3-1">
          <mxGeometry width="50" height="50" relative="1" as="geometry">
            <mxPoint x="160" y="500" as="sourcePoint" />
            <mxPoint x="270" y="500" as="targetPoint" />
          </mxGeometry>
        </mxCell>
        <mxCell id="iygmlJufoD4NKqdOlYH3-26" value="" style="endArrow=classic;html=1;rounded=0;exitX=1.003;exitY=0.16;exitDx=0;exitDy=0;exitPerimeter=0;entryX=-0.018;entryY=0.826;entryDx=0;entryDy=0;entryPerimeter=0;" edge="1" parent="1" target="iygmlJufoD4NKqdOlYH3-3">
          <mxGeometry width="50" height="50" relative="1" as="geometry">
            <mxPoint x="610" y="500" as="sourcePoint" />
            <mxPoint x="720" y="500" as="targetPoint" />
          </mxGeometry>
        </mxCell>
        <mxCell id="iygmlJufoD4NKqdOlYH3-27" value="message01,sendId" style="text;html=1;align=center;verticalAlign=middle;resizable=0;points=[];autosize=1;strokeColor=none;fillColor=none;" vertex="1" parent="1">
          <mxGeometry x="90" y="288" width="120" height="30" as="geometry" />
        </mxCell>
        <mxCell id="iygmlJufoD4NKqdOlYH3-29" value="message01,sendId" style="text;html=1;align=center;verticalAlign=middle;resizable=0;points=[];autosize=1;strokeColor=none;fillColor=none;" vertex="1" parent="1">
          <mxGeometry x="645" y="280" width="120" height="30" as="geometry" />
        </mxCell>
        <mxCell id="iygmlJufoD4NKqdOlYH3-30" value="receviceId" style="text;html=1;align=center;verticalAlign=middle;resizable=0;points=[];autosize=1;strokeColor=none;fillColor=none;" vertex="1" parent="1">
          <mxGeometry x="665" y="380" width="80" height="30" as="geometry" />
        </mxCell>
        <mxCell id="iygmlJufoD4NKqdOlYH3-31" value="receviceId" style="text;html=1;align=center;verticalAlign=middle;resizable=0;points=[];autosize=1;strokeColor=none;fillColor=none;" vertex="1" parent="1">
          <mxGeometry x="110" y="380" width="80" height="30" as="geometry" />
        </mxCell>
        <mxCell id="iygmlJufoD4NKqdOlYH3-32" value="message02,sendId" style="text;html=1;align=center;verticalAlign=middle;resizable=0;points=[];autosize=1;strokeColor=none;fillColor=none;" vertex="1" parent="1">
          <mxGeometry x="90" y="470" width="120" height="30" as="geometry" />
        </mxCell>
        <mxCell id="iygmlJufoD4NKqdOlYH3-33" value="message02,sendId" style="text;html=1;align=center;verticalAlign=middle;resizable=0;points=[];autosize=1;strokeColor=none;fillColor=none;" vertex="1" parent="1">
          <mxGeometry x="645" y="470" width="120" height="30" as="geometry" />
        </mxCell>
      </root>
    </mxGraphModel>
  </diagram>
</mxfile>
